<svg xmlns="http://www.w3.org/2000/svg" data-name="Layer 4" viewBox="0 0 128 160" x="0px" y="0px"><path d="M86.43,11.01c-2.8-2.8-7.33-2.8-10.13,0l-14.23,14.27c-.58,.59-.58,1.53,0,2.12,.93,.93,.99,2.49,0,3.48-.93,.93-2.51,.99-3.47,0-.5-.51-1.17-.45-1.07-.45-.97,0-.31-.31-46.44,45.89-2.79,2.79-2.79,7.34,0,10.14l30.47,30.53c2.8,2.8,7.33,2.8,10.13,0,46.11-46.18,45.81-45.54,45.81-46.51,0-.4-.16-.78-.44-1.06-1.28-1.27-.78-3.5,.98-4.08,.87-.28,1.85-.05,2.5,.6,.28,.28,.66,.44,1.06,.44,.9,0,.33,.29,15.3-14.7,2.79-2.79,2.79-7.34,0-10.14l-30.47-30.53Zm28.35,38.54l-13.33,13.35c-1.54-.85-3.52-.97-5.28,0l-1.57-1.57c-.59-.59-1.54-.59-2.12,0,0,0,0,0,0,0-.59,.58-.59,1.53,0,2.12l1.57,1.57c-.96,1.73-.9,3.73-.01,5.31l-44.46,44.53c-1.62,1.62-4.26,1.63-5.88,0l-30.47-30.53c-1.62-1.63-1.62-4.27,0-5.9L57.68,33.91c1.58,.88,3.57,.95,5.3-.01,1.6,1.6,1.83,2.01,2.63,2.01,1.32,0,2.01-1.61,1.06-2.56l-1.57-1.57c.97-1.76,.86-3.73,0-5.29l13.33-13.36c1.62-1.62,4.26-1.63,5.88,0l30.47,30.53c1.62,1.63,1.62,4.27,0,5.9Z"/><path d="M78.46,45.17c-.9-.9-2.12-.16-2.12,0-.59,.58-.59,1.53,0,2.12l4.35,4.35c.9,.9,2.12,.15,2.12,0,.59-.58,.59-1.54,0-2.12l-4.35-4.35Z"/><path d="M86.53,53.25c-1.4-1.4-3.52,.72-2.12,2.12l4.34,4.35c1.4,1.41,3.53-.71,2.12-2.12l-4.34-4.35Z"/><path d="M72.61,43.56c.58,.59,1.53,.59,2.12,0,0,0,0,0,0,0,.59-.58,.59-1.53,0-2.12l-4.34-4.35c-.58-.59-1.53-.59-2.12,0,0,0,0,0,0,0-.59,.58-.59,1.53,0,2.12l4.34,4.35Z"/><path d="M75.03,70.37l-30.92,30.92c-1.4,1.4,.72,3.52,2.12,2.12l30.92-30.92c1.4-1.4-.72-3.52-2.12-2.12Z"/><path d="M52.29,78.55l-15.46,15.46c-.95,.95-.26,2.56,1.06,2.56,.94,0,.33,.29,16.52-15.9,1.4-1.4-.72-3.52-2.12-2.12Z"/><path d="M68.89,51.03c0-.86,.06-.56-7.71-8.33-.59-.59-1.54-.59-2.12,0L22.28,79.47c-.59,.59-.59,1.54,0,2.12,7.77,7.77,7.47,7.71,8.33,7.71,.97,0,.31,.31,37.83-37.21,.28-.28,.44-.66,.44-1.06ZM30.61,85.68l-5.15-5.15L60.11,45.88l5.15,5.15L30.61,85.68Z"/><path d="M103.83,42.3l-7.59,7.6c-1.4,1.4,.72,3.52,2.12,2.12l7.59-7.6c1.4-1.4-.72-3.52-2.12-2.12Z"/><path d="M99.09,37.56l-7.59,7.6c-.95,.95-.26,2.56,1.06,2.56,.86,0,.55,.07,8.66-8.04,1.4-1.4-.72-3.52-2.12-2.12Z"/><path d="M88.87,42.53l7.6-7.59c1.4-1.4-.72-3.52-2.12-2.12l-7.6,7.59c-1.4,1.4,.72,3.52,2.12,2.12Z"/><path d="M83.07,38.23c.86,0,.55,.07,8.66-8.03,1.4-1.4-.72-3.52-2.12-2.12l-7.6,7.59c-.95,.95-.26,2.56,1.06,2.56Z"/><text x="0" y="143" fill="#000000" font-size="5px" font-weight="bold" font-family="'Helvetica Neue', Helvetica, Arial-Unicode, Arial, Sans-serif">Created by Sgra Pe</text><text x="0" y="148" fill="#000000" font-size="5px" font-weight="bold" font-family="'Helvetica Neue', Helvetica, Arial-Unicode, Arial, Sans-serif">from the Noun Project</text></svg>